Coordinates
version=1
nRows=60
nColumns=12
inDegrees=yes

Units are S.I. units (second, meters, Newtons, ...)
Angles are in degrees

endheader
time	SC_y	SC_z	SC_x	AC_y	AC_z	AC_x	GH_y	GH_z	GH_yy	EL_x	PS_y
       0.0              -17.06          30.15          34.94          69.51         -9.183         -17.97          149.4          51.77          114.9           37.3          28.65
   0.03972              -17.06          30.14          34.94          69.51         -9.185         -17.97          149.4          51.78          114.9          37.31          28.65
   0.07943              -17.07          30.14          34.94          69.51         -9.186         -17.96          149.3          51.78          114.9          37.31          28.65
    0.1192              -17.07          30.14          34.94          69.51         -9.188         -17.96          149.3          51.78          114.9          37.32          28.66
    0.1589              -17.08          30.14          34.94          69.51         -9.189         -17.95          149.2          51.78          114.9          37.33          28.66
    0.1986              -17.08          30.14          34.94          69.51         -9.191         -17.94          149.2          51.79          114.9          37.33          28.66
    0.2383              -17.09          30.14          34.94          69.51         -9.193         -17.94          149.1          51.79          114.8          37.34          28.66
     0.278              -17.09          30.13          34.94          69.51         -9.195         -17.93          149.0          51.79          114.8          37.35          28.66
    0.3177               -17.1          30.13          34.95           69.5         -9.197         -17.92          149.0           51.8          114.8          37.36          28.66
    0.3575               -17.1          30.13          34.95           69.5         -9.199         -17.91          148.9           51.8          114.8          37.37          28.66
    0.3972              -17.11          30.13          34.95           69.5         -9.201          -17.9          148.8          51.81          114.7          37.38          28.66
    0.4369              -17.12          30.12          34.95           69.5         -9.204         -17.89          148.8          51.81          114.7          37.39          28.66
    0.4766              -17.13          30.12          34.95           69.5         -9.207         -17.88          148.7          51.82          114.7           37.4          28.67
    0.5163              -17.14          30.12          34.95           69.5          -9.21         -17.87          148.6          51.82          114.6          37.41          28.67
     0.556              -17.14          30.11          34.95           69.5         -9.213         -17.86          148.5          51.83          114.6          37.43          28.67
    0.5958              -17.15          30.11          34.96           69.5         -9.216         -17.85          148.4          51.83          114.6          37.44          28.67
    0.6355              -17.16          30.11          34.96           69.5          -9.22         -17.83          148.2          51.84          114.5          37.46          28.67
    0.6752              -17.18           30.1          34.96           69.5         -9.224         -17.82          148.1          51.85          114.5          37.48          28.68
    0.7149              -17.19           30.1          34.96           69.5         -9.229          -17.8          148.0          51.86          114.4           37.5          28.68
    0.7546               -17.2          30.09          34.96          69.49         -9.234         -17.78          147.8          51.87          114.4          37.52          28.68
    0.7943              -17.22          30.09          34.97          69.49         -9.239         -17.76          147.6          51.88          114.3          37.54          28.68
    0.8341              -17.24          30.08          34.97          69.49         -9.245         -17.74          147.5          51.89          114.2          37.57          28.69
    0.8738              -17.25          30.07          34.97          69.49         -9.252         -17.71          147.2           51.9          114.2           37.6          28.69
    0.9135              -17.28          30.07          34.98          69.49         -9.259         -17.68          147.0          51.91          114.1          37.63          28.69
    0.9532               -17.3          30.06          34.98          69.49         -9.268         -17.65          146.8          51.93          114.0          37.67           28.7
    0.9929              -17.32          30.05          34.98          69.48         -9.277         -17.62          146.5          51.95          113.9          37.71           28.7
     1.033              -17.35          30.04          34.99          69.48         -9.287         -17.58          146.2          51.97          113.8          37.75          28.71
     1.072              -17.39          30.02           35.0          69.48         -9.298         -17.53          145.8          51.99          113.6           37.8          28.72
     1.112              -17.42          30.01           35.0          69.47         -9.311         -17.48          145.4          52.01          113.5          37.86          28.72
     1.152              -17.46          29.99          35.01          69.47         -9.326         -17.43          144.9          52.04          113.3          37.92          28.73
     1.192              -17.51          29.98          35.02          69.47         -9.343         -17.36          144.4          52.07          113.1          37.99          28.74
     1.231              -17.57          29.96          35.03          69.46         -9.362         -17.29          143.8          52.11          112.9          38.08          28.75
     1.271              -17.63          29.93          35.04          69.45         -9.385          -17.2          143.1          52.15          112.7          38.18          28.76
     1.311               -17.7           29.9          35.05          69.45         -9.411          -17.1          142.3           52.2          112.4          38.29          28.78
      1.35              -17.79          29.87          35.06          69.44         -9.441         -16.99          141.3          52.25          112.0          38.42          28.79
      1.39              -17.89          29.83          35.08          69.43         -9.477         -16.85          140.2          52.32          111.6          38.58          28.81
      1.43              -18.01          29.79           35.1          69.42         -9.519         -16.69          138.9           52.4          111.1          38.76          28.83
      1.47              -18.15          29.73          35.13           69.4          -9.57         -16.49          137.3           52.5          110.5          38.98          28.86
     1.509              -18.32          29.67          35.16          69.39         -9.632         -16.26          135.4          52.61          109.8          39.25           28.9
     1.549              -18.54          29.59          35.19          69.37         -9.707         -15.97          133.0          52.75          109.0          39.58          28.94
     1.589               -18.8          29.49          35.24          69.34           -9.8         -15.61          130.1          52.93          107.9          39.98          28.99
     1.628              -19.12          29.37           35.3          69.31         -9.916         -15.17          126.5          53.14          106.6          40.49          29.05
     1.668              -19.54          29.21          35.37          69.27         -10.06         -14.61          121.9          53.41          104.9          41.12          29.13
     1.708              -20.06          29.01          35.46          69.22         -10.25          -13.9          116.1          53.76          102.8          41.93          29.23
     1.748              -20.73          28.76          35.57          69.16         -10.48         -12.99          108.7          54.21          100.1          42.96          29.36
     1.787              -21.59          28.44          35.72          69.08         -10.79         -11.82          99.16          54.78          96.66          44.29          29.52
     1.827              -22.68          28.02          35.91          68.97         -11.18         -10.33          86.99           55.5          92.23          45.98          29.73
     1.867              -24.06           27.5          36.15          68.84         -11.67         -8.455          71.68          56.42          86.66          48.11          29.99
     1.906              -25.74          26.86          36.44          68.68         -12.26          -6.17          53.02          57.53          79.87          50.71          30.32
     1.946              -27.69          26.13          36.78          68.49         -12.96         -3.521           31.4          58.83           72.0          53.72          30.69
     1.986               -29.8          25.33          37.14          68.29          -13.7        -0.6536          7.985          60.23          63.48          56.98          31.09
     2.026              -31.91          24.53          37.51          68.09         -14.45          2.214         -15.43          61.63          54.96          60.23           31.5
     2.065              -33.85           23.8          37.84           67.9         -15.14          4.863         -37.05          62.92          47.09          63.24          31.87
     2.105              -35.53          23.16          38.13          67.74         -15.74          7.147         -55.71          64.03          40.31          65.84          32.19
     2.145              -36.91          22.64          38.37          67.61         -16.23          9.022         -71.02          64.95          34.73          67.97          32.45
     2.184              -38.01          22.22          38.56          67.51         -16.62          10.51         -83.19          65.68           30.3          69.66          32.66
     2.224              -38.87           21.9          38.71          67.43         -16.92          11.68         -92.72          66.25          26.84          70.99          32.83
     2.264              -39.54          21.65          38.83          67.36         -17.16          12.59         -100.2          66.69          24.13          72.02          32.96
     2.304              -40.06          21.45          38.92          67.31         -17.35           13.3         -106.0          67.04          22.02          72.83          33.06
     2.343              -40.47          21.29          38.99          67.27         -17.49          13.86         -110.5          67.31          20.36          73.46          33.14
